<?xml version="1.0" encoding="UTF-8" standalone="no"?>
<svg xmlns="http://www.w3.org/2000/svg" xmlns:xlink="http://www.w3.org/1999/xlink" width="144.228mm" height="144.442mm" viewBox="213.085587 -372.972046 144.228043 144.441864">
  <defs>
    <!-- Degradado entre #B88A2D y #D2B46C -->
    <linearGradient id="gold-gradient" x1="0%" y1="0%" x2="100%" y2="100%">
      <stop offset="0%" style="stop-color:#B88A2D;stop-opacity:1" />
      <stop offset="100%" style="stop-color:#D2B46C;stop-opacity:1" />
    </linearGradient>
  </defs>

  <path transform="matrix(1,0,0,-1,0,0)" 
        style="stroke:none;fill:url(#gold-gradient);fill-rule:evenodd" 
        d="M228.750275,372.8013C226.387909,372.48053,224.838745,371.993439,222.815918,370.935364C218.305481,368.576111,215.002747,364.487915,213.603561,359.532166C213.108871,357.780029,213.085587,355.140381,213.085587,300.82486C213.085587,246.509323,213.108871,243.869659,213.603561,242.117538C215.002502,237.162643,218.302628,233.077179,222.815918,230.712906C226.798141,228.626831,224.796066,228.74942,256.622131,228.642776L285.199615,228.546997L285.199615,253.396057L285.199615,278.245117L276.167725,278.245117L267.135803,278.245117L267.135803,289.534973L267.135803,300.82486L276.15033,300.82486L285.164825,300.82486L285.266418,312.185272C285.361023,322.765259,285.409668,323.694977,285.974182,325.718567C288.625183,335.221832,295.962097,342.558746,305.465363,345.209778C307.488953,345.774261,308.418671,345.822876,318.998657,345.917511L330.35907,346.019104L330.35907,334.739288L330.35907,323.459442L322.950104,323.361206C315.757294,323.265808,315.506958,323.243408,314.370667,322.592529C312.433197,321.482788,312.448212,321.571686,312.350006,310.632935L312.261963,300.82486L323.598694,300.82486C334.276306,300.82486,334.924896,300.796143,334.754608,300.330933C334.655182,300.059265,332.641174,294.980438,330.279022,289.044647L325.984253,278.252289L319.139771,278.248718L312.295288,278.245117L312.295288,253.38765L312.295288,228.530182L327.324921,228.644058C343.98877,228.770325,343.847473,228.755905,347.583313,230.712906C352.096588,233.077179,355.396729,237.162643,356.795654,242.117538C357.290344,243.869659,357.313629,246.509323,357.313629,300.82486C357.313629,355.140381,357.290344,357.780029,356.795654,359.532166C355.0495,365.716919,350.283569,370.532318,344.048035,372.41214C342.440979,372.896606,339.494995,372.924957,286.328613,372.967377C255.514313,372.991943,229.604065,372.917236,228.750275,372.8013z"/>
</svg>