<?xml version="1.0" encoding="UTF-8" standalone="no"?>
<svg xmlns="http://www.w3.org/2000/svg" xmlns:xlink="http://www.w3.org/1999/xlink" width="145.648mm" height="145.764mm" viewBox="-0.360941 -415.063660 145.647827 145.764496">
  <defs>
    <!-- Degradado dorado oscuro a dorado claro -->
    <linearGradient id="gold-gradient" x1="0%" y1="0%" x2="100%" y2="100%">
      <stop offset="0%" style="stop-color:#B88A2D;stop-opacity:1" />
      <stop offset="100%" style="stop-color:#D2B46C;stop-opacity:1" />
    </linearGradient>
  </defs>

  <path transform="matrix(1,0,0,-1,0,0)" 
        style="stroke:none;fill:url(#gold-gradient);fill-rule:evenodd" 
        d="M17.474556,414.779602C9.305657,413.17688,2.859965,407.300446,0.306883,399.128082L-0.360941,396.990417L-0.360941,341.98056L-0.360941,286.970703L0.422074,284.690521C2.897468,277.481964,7.821868,272.557556,15.030415,270.082184L17.310614,269.299164L72.320457,269.299164L127.330299,269.299164L129.467987,269.96698C133.426285,271.203583,135.888565,272.702393,138.886108,275.699951C141.883636,278.697479,143.382477,281.15976,144.619064,285.118042L145.28688,287.255737L145.28688,342.123077L145.28688,396.990417L144.619461,399.115814C143.878281,401.476074,142.446426,404.444641,141.314026,405.968689C138.935699,409.169556,135.147964,412.122314,131.646393,413.505127C127.450027,415.162354,130.533249,415.081848,72.320457,415.053314C42.848866,415.038879,18.168207,414.91568,17.474556,414.779602zM110.850159,397.255768C115.120491,396.373718,118.693153,394.433105,121.749847,391.335297C124.533638,388.514038,126.312454,385.460327,127.4049,381.627258C127.864235,380.015594,127.900352,377.136536,127.900352,342.123077C127.900352,307.109589,127.864235,304.23056,127.4049,302.618866C125.192284,294.855469,119.211517,289.007568,111.511406,287.07843C110.219345,286.75473,103.354973,286.685699,72.462967,286.685699C32.092201,286.685699,33.89257,286.622345,30.151447,288.174683C25.101105,290.270325,20.645815,294.718384,18.509851,299.797424C16.837955,303.77298,16.883076,302.598999,16.883076,342.123077C16.883076,374.137848,16.935772,378.600403,17.336742,380.541626C19.045248,388.813049,25.634092,395.469788,33.85696,397.232086C36.925083,397.889648,107.676041,397.911407,110.850159,397.255768zM35.267197,388.747162C32.867222,388.146667,31.070749,387.121094,29.261196,385.318329C27.397247,383.461395,26.270645,381.416687,25.751514,378.948547C25.303522,376.818604,25.303522,307.427551,25.751514,305.297607C26.778393,300.415405,30.72817,296.467834,35.637508,295.417175C37.755047,294.963989,107.135353,294.958771,109.288429,295.411621C114.170647,296.438507,118.118202,300.388275,119.168861,305.297607C119.626907,307.437866,119.626907,376.808258,119.168861,378.948547C118.118202,383.857849,114.170647,387.807648,109.288429,388.834534C107.003448,389.315125,37.207985,389.232758,35.267197,388.747162zM106.220482,379.625153C109.201584,378.166626,110.787048,375.536865,110.787048,372.05072C110.787048,369.622559,110.195267,367.998505,108.6828,366.275879C106.363754,363.634644,101.922958,362.822357,98.633514,364.437714C94.065659,366.680847,92.504227,372.354462,95.259193,376.698608C97.533127,380.284241,102.281914,381.552094,106.220482,379.625153zM79.312347,371.240295C84.950279,369.770874,89.701836,367.102478,93.572098,363.232208C97.424301,359.380005,100.038246,354.738861,101.603348,348.972443C102.371605,346.141876,102.460434,339.017761,101.765297,335.982056C99.142006,324.525696,90.989433,316.173035,79.312347,312.977966C76.165985,312.117065,68.719254,312.128845,65.528259,312.999786C54.166206,316.100891,46.445259,323.843903,43.317871,335.273682C42.469032,338.375977,42.469032,345.870178,43.317871,348.972443C44.901512,354.760254,47.505314,359.383667,51.341827,363.220184C55.771973,367.65033,61.942955,370.803345,68.045074,371.754517C70.706619,372.169403,76.817574,371.890503,79.312347,371.240295zM68.047562,363.02655C59.785519,361.25647,53.238148,354.639221,51.536499,346.339203C50.082993,339.249542,52.304016,332.100342,57.552959,326.973022C60.747265,323.852722,64.058891,322.065033,68.247414,321.19986C79.678551,318.838684,91.001877,326.36438,93.386185,337.907532C95.747482,349.339355,88.22171,360.661987,76.677094,363.04657C73.988586,363.601898,70.697418,363.594269,68.047562,363.02655z"/>
</svg>