<?xml version="1.0" encoding="UTF-8" standalone="no"?>
<svg xmlns="http://www.w3.org/2000/svg" xmlns:xlink="http://www.w3.org/1999/xlink" width="144.546mm" height="144.493mm" viewBox="75.598785 -210.344131 144.545593 144.493164">
  <defs>
    <!-- Degradado entre #B88A2D y #D2B46C -->
    <linearGradient id="gold-gradient" x1="0%" y1="0%" x2="100%" y2="100%">
      <stop offset="0%" style="stop-color:#B88A2D;stop-opacity:1" />
      <stop offset="100%" style="stop-color:#D2B46C;stop-opacity:1" />
    </linearGradient>
  </defs>

  <path transform="matrix(1,0,0,-1,0,0)" 
        style="stroke:none;fill:url(#gold-gradient);fill-rule:evenodd" 
        d="M91.724014,210.129227C83.837463,208.803772,77.065605,201.873184,75.836052,193.868881C75.632263,192.542236,75.562553,174.451797,75.616158,136.803772L75.694633,81.681076L76.490479,79.419632C78.711594,73.108215,82.951881,68.867928,89.263298,66.646812L91.524742,65.850967L147.919495,65.850967L204.31427,65.850967L206.575714,66.649132C213.101074,68.952232,217.600464,73.647713,219.625549,80.26767C220.121429,81.888809,220.144379,84.4496,220.144379,138.217178L220.144379,194.470596L219.348511,196.73204C217.127411,203.043457,212.887115,207.283737,206.575714,209.504852L204.31427,210.300705L148.767548,210.340759C117.413574,210.363358,92.568909,210.271225,91.724014,210.129227zM118.369507,182.871399C121.9823,181.930374,124.891113,179.485916,126.506927,176.03299C127.6455,173.59993,127.904022,170.193726,127.147614,167.591751C125.615616,162.321838,120.857956,158.711517,115.445343,158.711517C110.631012,158.711517,106.23774,161.451538,104.222725,165.710938C99.800888,175.057922,108.385895,185.471802,118.369507,182.871399zM123.889191,152.538498C124.424065,152.003632,124.750908,151.320862,124.87027,150.489059C124.968719,149.803024,125.011421,137.029922,124.965157,122.104385C124.885864,96.524689,124.851852,94.92408,124.372574,94.218277C123.477249,92.899811,122.8535,92.813248,114.901627,92.903954L107.50808,92.988297L106.724762,93.772034L105.941444,94.555779L105.862411,122.605453C105.818947,138.032776,105.855888,150.952179,105.944519,151.315247C106.033142,151.678314,106.437096,152.282532,106.842201,152.657974L107.578743,153.340576L115.332924,153.340576L123.087105,153.340576L123.889191,152.538498zM173.849304,154.167145C183.710999,153.067505,189.614441,147.40979,191.708984,137.050888C192.670105,132.297546,192.859772,128.035294,192.862793,111.122246L192.865692,94.76918L191.904602,93.808067L190.943481,92.846954L183.212158,92.848007C176.025024,92.848991,175.416718,92.888168,174.569733,93.404602C174.068604,93.710144,173.593506,94.250298,173.513947,94.604935C173.434387,94.959579,173.322113,102.691299,173.264465,111.786545C173.188644,123.747849,173.062012,128.714417,172.806793,129.736755C172.198929,132.171753,170.897903,134.564087,169.523743,135.773651C167.81572,137.27713,166.194489,137.793152,163.179047,137.793152C161.017441,137.793152,160.529099,137.692551,159.012817,136.93486C156.935364,135.896744,155.477448,134.347351,154.400452,132.033081C152.608765,128.18309,152.631622,128.435501,152.458954,110.592651L152.301056,94.275345L151.657623,93.631821C151.024536,92.998627,150.891907,92.986954,143.400177,92.904701C135.03363,92.812851,134.463303,92.905396,133.820801,94.459038C133.578949,95.043869,133.513367,102.634598,133.56897,123.612976L133.644135,151.976227L134.437271,152.658417L135.230408,153.340576L143.006943,153.340576C147.766876,153.340576,150.993073,153.228424,151.323761,153.051422C152.241791,152.560104,152.56012,151.603943,152.716125,148.868927L152.866409,146.234711L153.954895,147.664948C157.775818,152.685593,165.244568,155.126633,173.849304,154.167145z"/>
</svg>